<?xml version="1.0" encoding="UTF-8" standalone="no"?>
<!-- Created with Inkscape (http://www.inkscape.org/) -->

<svg
   xmlns:dc="http://purl.org/dc/elements/1.1/"
   xmlns:cc="http://creativecommons.org/ns#"
   xmlns:rdf="http://www.w3.org/1999/02/22-rdf-syntax-ns#"
   xmlns:svg="http://www.w3.org/2000/svg"
   xmlns="http://www.w3.org/2000/svg"
   xmlns:sodipodi="http://sodipodi.sourceforge.net/DTD/sodipodi-0.dtd"
   xmlns:inkscape="http://www.inkscape.org/namespaces/inkscape"
   width="62.536572mm"
   height="22.315605mm"
   viewBox="0 0 221.58628 79.071039"
   id="svg2"
   version="1.1"
   inkscape:version="0.91 r13725"
   sodipodi:docname="inqur.svg">
  <defs
     id="defs4" />
  <sodipodi:namedview
     id="base"
     pagecolor="#ffffff"
     bordercolor="#666666"
     borderopacity="1.0"
     inkscape:pageopacity="0.0"
     inkscape:pageshadow="2"
     inkscape:zoom="4.6583267"
     inkscape:cx="97.362651"
     inkscape:cy="17.988968"
     inkscape:document-units="px"
     inkscape:current-layer="g4253"
     showgrid="false"
     inkscape:window-width="1680"
     inkscape:window-height="1001"
     inkscape:window-x="0"
     inkscape:window-y="1"
     inkscape:window-maximized="1"
     fit-margin-top="0"
     fit-margin-left="0"
     fit-margin-right="0"
     fit-margin-bottom="0" />
  <metadata
     id="metadata7">
    <rdf:RDF>
      <cc:Work
         rdf:about="">
        <dc:format>image/svg+xml</dc:format>
        <dc:type
           rdf:resource="http://purl.org/dc/dcmitype/StillImage" />
        <dc:title></dc:title>
      </cc:Work>
    </rdf:RDF>
  </metadata>
  <g
     inkscape:label="Layer 1"
     inkscape:groupmode="layer"
     id="layer1"
     transform="translate(-186.52547,-412.03817)">
    <g
       id="g4253"
       transform="matrix(1.0001782,0,0,0.9041034,-0.05297579,47.078713)">
      <text
         sodipodi:linespacing="125%"
         id="text3340"
         y="243.79079"
         x="168.57143"
         style="font-style:normal;font-weight:normal;font-size:40px;line-height:125%;font-family:sans-serif;letter-spacing:0px;word-spacing:0px;fill:#000000;fill-opacity:1;stroke:none;stroke-width:1px;stroke-linecap:butt;stroke-linejoin:miter;stroke-opacity:1"
         xml:space="preserve"><tspan
           y="243.79079"
           x="168.57143"
           id="tspan3342"
           sodipodi:role="line" /></text>
      <g
         transform="translate(0,-2)"
         id="g4220" />
      <g
         id="g4274">
        <circle
           cx="193.88799"
           cy="413.01282"
           id="path4218"
           style="fill:#89c625;fill-opacity:1;stroke:#89c625;stroke-width:1.01433575;stroke-opacity:1"
           r="6.8356142"
           transform="translate(-4.2092499e-6,-1.9999958)" />
        <g
           transform="matrix(1.0002278,0,0,0.84322504,-0.06771,76.977026)"
           id="g4183">
          <g
             style="font-style:normal;font-weight:normal;font-size:127.32265472px;line-height:125%;font-family:sans-serif;letter-spacing:0px;word-spacing:0px;fill:#000000;fill-opacity:1;stroke:none;stroke-width:1px;stroke-linecap:butt;stroke-linejoin:miter;stroke-opacity:1"
             id="text3336">
            <path
               inkscape:connector-curvature="0"
               d="m 200.03585,462.75288 0,-46.60009 c 0,-2.12205 -0.55173,-3.69236 -1.65519,-4.71094 -1.18835,-1.18835 -2.67378,-1.78252 -4.4563,-1.78252 -4.07432,0 -6.11148,2.16449 -6.11148,6.49346 l 0,46.60009 c 0,2.20693 0.55173,3.7348 1.65519,4.58362 0.9337,1.27323 2.41913,1.90984 4.45629,1.90984 4.07433,0 6.11149,-2.16449 6.11149,-6.49346 z"
               style="font-style:normal;font-variant:normal;font-weight:bold;font-stretch:normal;font-family:Dreamspeak;-inkscape-font-specification:'Dreamspeak Bold';letter-spacing:0px;fill:#89c625;fill-opacity:1;stroke:#ffffff;stroke-opacity:1"
               id="path4157"
               sodipodi:nodetypes="sscssscss" />
            <path
               inkscape:connector-curvature="0"
               d="m 255.80516,462.75288 0,-30.55744 q 0,-11.07707 -7.25739,-17.57052 -5.34755,-4.96559 -13.75085,-4.96559 -4.45629,0 -9.0399,1.78252 -2.29181,0.76394 -4.58362,2.54645 l 0,4.32897 q 0,-8.65794 -6.11149,-8.65794 -6.11148,0 -6.11148,6.49346 l 0,46.60009 q 0,3.31039 1.65519,4.58362 1.40055,1.90984 4.45629,1.90984 6.11149,0 6.11149,-6.49346 l 0,-30.04815 q 0,-4.71093 3.69236,-8.40329 3.43771,-3.56503 7.51203,-3.56503 4.4563,0 7.63936,2.67377 3.43772,3.18307 3.43772,9.29455 l 0,30.04815 q 0,3.31039 1.65519,4.58362 1.40055,1.90984 4.32897,1.90984 6.36613,0 6.36613,-6.49346 z"
               style="font-style:normal;font-variant:normal;font-weight:bold;font-stretch:normal;font-family:Dreamspeak;-inkscape-font-specification:'Dreamspeak Bold';letter-spacing:0px;fill:#000000"
               id="path4159" />
            <path
               sodipodi:nodetypes="sscsccscscsccscssscscscscs"
               inkscape:connector-curvature="0"
               d="m 313.0367,484.39773 0,-68.24494 c 0,-1.95228 -0.63661,-3.48015 -1.90984,-4.58362 -1.01858,-1.27323 -2.46157,-1.90984 -4.32897,-1.90984 -1.95228,0 -3.56503,0.76394 -4.83826,2.29181 -2.45749,-0.11406 -4.42324,-1.35232 -5.85684,-0.89126 -2.29181,-0.9337 -5.22023,-1.40055 -8.78526,-1.40055 -7.55448,0 -13.75085,3.0133 -18.58911,9.03991 -4.24409,5.77196 -6.36614,12.68983 -6.36614,20.7536 0,7.80912 2.16449,14.59966 6.49346,20.37162 4.6685,6.28125 10.82243,9.42188 18.46179,9.42188 3.22551,0 6.53589,-0.89126 9.93116,-2.67378 0.9337,-0.42441 2.0796,-1.1459 3.43771,-2.16448 l 0,19.98965 c 0,2.12205 0.50929,3.69236 1.52788,4.71094 1.10346,1.18835 2.63133,1.78252 4.58361,1.78252 4.15921,0 6.23881,-2.16449 6.23881,-6.49346 z m -11.45904,-44.94489 c 0,5.0929 -1.06102,9.33699 -3.18306,12.73226 -2.37669,3.90456 -5.81441,5.85684 -10.31314,5.85684 -4.58361,0 -8.06377,-1.95228 -10.44046,-5.85684 -2.03716,-3.14063 -3.05574,-7.38471 -3.05574,-12.73226 0,-5.17779 1.01858,-9.42188 3.05574,-12.73227 2.37669,-3.98944 5.85685,-5.98416 10.44046,-5.98416 4.58361,0 8.06377,1.99472 10.44046,5.98416 2.03716,3.31039 3.05574,7.55448 3.05574,12.73227 z"
               style="font-style:normal;font-variant:normal;font-weight:bold;font-stretch:normal;font-family:Dreamspeak;-inkscape-font-specification:'Dreamspeak Bold';letter-spacing:0px;fill:#000000"
               id="path4161" />
            <path
               inkscape:connector-curvature="0"
               d="m 368.95323,445.69165 0,-29.53886 q 0,-3.18307 -1.6552,-4.71094 -2.03716,-1.78252 -4.71094,-1.78252 -5.98416,0 -5.98416,6.49346 l 0,29.53886 q 0,12.35029 -11.07707,12.35029 -11.2044,0 -11.2044,-12.35029 l 0,-29.53886 q 0,-3.18307 -1.65519,-4.71094 -1.78252,-1.78252 -4.45629,-1.78252 -6.11149,0 -6.11149,6.49346 l 0,29.53886 q 0,11.96833 7.25739,18.33446 6.49346,5.22023 16.16998,5.22023 9.80384,0 16.04265,-5.47488 7.38472,-6.23881 7.38472,-18.07981 z"
               style="font-style:normal;font-variant:normal;font-weight:bold;font-stretch:normal;font-family:Dreamspeak;-inkscape-font-specification:'Dreamspeak Bold';letter-spacing:0px;fill:#000000"
               id="path4163" />
            <path
               inkscape:connector-curvature="0"
               d="m 407.72297,415.89814 q 0,-2.80109 -3.05574,-4.58361 -2.92842,-1.6552 -5.47488,-1.6552 -3.947,0 -7.63935,3.81968 -0.25465,0.25465 -0.89126,0.89126 -0.12733,0.12733 -0.63662,0.63662 l 0,1.1459 q 0,-3.18307 -1.65519,-4.71094 -1.78252,-1.78252 -4.45629,-1.78252 -6.11149,0 -6.11149,6.49346 l 0,46.60009 q 0,3.31039 1.65519,4.58362 1.40055,1.90984 4.4563,1.90984 6.11148,0 6.11148,-6.49346 l 0,-26.22847 q 0,-7.00274 2.8011,-10.56778 2.67378,-2.92842 7.76668,-3.56503 3.18307,0 5.22023,-1.65519 1.90984,-2.03717 1.90984,-4.83827 z"
               style="font-style:normal;font-variant:normal;font-weight:bold;font-stretch:normal;font-family:Dreamspeak;-inkscape-font-specification:'Dreamspeak Bold';letter-spacing:0px;fill:#000000"
               id="path4165" />
          </g>
          <path
             style="fill:#270000;fill-opacity:0;stroke:none;stroke-width:1px;stroke-linecap:butt;stroke-linejoin:miter;stroke-opacity:1"
             d="m 189.98721,403.931 c -1.86512,-1.13725 -2.49503,-2.23486 -2.8412,-4.95071 -0.69661,-5.46534 5.56717,-9.53945 10.26374,-6.67578 4.3884,2.67578 4.60665,8.99528 0.40044,11.59487 -2.07297,1.28116 -5.74932,1.29602 -7.82298,0.0316 z"
             id="path4146"
             inkscape:connector-curvature="0" />
          <path
             style="fill:#ffffff;stroke:#ffffff;stroke-width:1px;stroke-linecap:butt;stroke-linejoin:miter;stroke-opacity:1"
             d="m 192.70065,469.09824 c -1.52158,-0.39019 -2.03467,-0.66647 -2.92536,-1.57519 -1.15513,-1.1785 -1.529,-1.87805 -1.75802,-3.2895 -0.24442,-1.50632 -0.24278,-48.10653 0.002,-49.61362 0.26013,-1.60326 0.76942,-2.64318 1.70759,-3.48667 1.05099,-0.94493 2.26212,-1.33619 4.1294,-1.33402 1.95789,0.002 3.14587,0.46775 4.40347,1.72534 1.75838,1.75838 1.60669,-0.89238 1.60669,28.0782 l 0,25.24994 -0.38523,0.95188 c -0.85954,2.12387 -2.42726,3.15835 -5.00316,3.3014 -0.78975,0.0439 -1.58946,0.0404 -1.77713,-0.008 z"
             id="path4171"
             inkscape:connector-curvature="0" />
          <path
             style="fill:#ffffff;fill-opacity:1;stroke:#ffffff;stroke-width:1px;stroke-linecap:butt;stroke-linejoin:miter;stroke-opacity:1"
             d="m 213.27276,468.93222 c -0.50845,-0.13671 -1.16455,-0.39694 -1.45801,-0.57831 -0.80502,-0.49753 -1.80011,-1.6831 -2.29428,-2.73345 l -0.44148,-0.93834 -0.0479,-24.48221 c -0.0323,-16.49802 0.0106,-24.86188 0.13146,-25.64639 0.43266,-2.80888 1.99289,-4.36166 4.72565,-4.70311 2.26241,-0.28268 4.09835,0.25719 5.26459,1.54808 1.06275,1.17633 1.52681,2.51878 1.9354,5.59876 0.13863,1.045 0.14832,0.98983 0.16817,-0.95684 l 0.0211,-2.06579 0.91196,-0.60551 c 3.86091,-2.5635 9.42885,-3.90116 14.6314,-3.51509 5.02119,0.37262 9.03134,2.19369 12.52636,5.68844 3.05291,3.05268 4.93295,6.64568 5.91214,11.2989 0.38639,1.83617 0.38791,1.90255 0.44178,19.26227 0.047,15.14603 0.0199,17.58369 -0.20786,18.67587 -0.48429,2.3227 -1.85272,3.68811 -4.1945,4.18529 -2.01886,0.42861 -4.27287,0.0693 -5.28316,-0.84219 -1.1027,-0.99485 -1.87539,-2.02258 -2.15767,-2.86981 -0.28083,-0.84288 -0.31096,-2.23537 -0.39808,-18.39918 l -0.0943,-17.4873 -0.40067,-1.19425 c -0.83133,-2.47798 -1.85828,-4.02651 -3.49592,-5.2715 -1.85809,-1.41258 -4.19038,-2.15636 -6.81643,-2.17379 -2.97119,-0.0197 -4.8641,0.77158 -7.27516,3.04124 -1.86169,1.75252 -3.07547,3.51603 -3.71057,5.3911 l -0.47468,1.40146 -0.0853,17.14608 c -0.0852,17.12228 -0.0858,17.14733 -0.45661,18.05184 -0.20422,0.49818 -0.5715,1.16823 -0.81617,1.48902 -1.20251,1.57656 -4.14929,2.33319 -6.5613,1.68471 z"
             id="path4173"
             inkscape:connector-curvature="0" />
          <path
             sodipodi:nodetypes="ccsssssssssccssscsccccsssssssssscc"
             style="fill:#ffffff;fill-opacity:1;stroke:none;stroke-width:1px;stroke-linecap:butt;stroke-linejoin:miter;stroke-opacity:1"
             d="m 305.21172,490.64855 c -1.84098,-0.416 -3.40651,-1.7109 -4.03584,-3.33815 -0.28056,-0.72547 -0.30988,-1.6992 -0.35638,-11.83734 -0.0279,-6.07577 -0.10225,-11.04686 -0.1653,-11.04686 -0.063,0 -0.55693,0.31025 -1.0975,0.68944 -1.17718,0.82575 -4.73998,2.56046 -6.27242,3.05402 -2.22546,0.71676 -3.75084,0.9446 -6.23755,0.93166 -6.10826,-0.0318 -10.96884,-1.9818 -15.246,-6.11656 -6.59215,-6.37265 -10.00188,-16.01994 -9.25747,-26.19251 0.49749,-6.79818 2.1514,-11.88841 5.48939,-16.89467 3.17783,-4.76604 8.4186,-8.38492 13.86789,-9.57612 4.12752,-0.90226 9.96653,-0.95761 13.48786,0.0258 2.22068,0.3647 4.62558,1.08781 6.30878,1.40375 0.2135,0.27712 0.27602,0.25517 0.87067,-0.30565 1.77133,-1.67058 4.82567,-2.16883 6.87406,-1.12135 1.05427,0.53912 2.66225,2.35453 3.083,3.48071 l 0.36889,0.98739 0,35.63265 c 0,35.6043 -3.4e-4,35.63356 -0.35477,36.78124 -0.66282,2.14597 -2.42821,3.373 -5.13068,3.56606 -0.73054,0.0522 -1.64703,6.9e-4 -2.19663,-0.12355 z m -14.63989,-32.77437 c 1.79222,-0.34293 3.29929,-0.99704 4.66142,-2.02319 2.87274,-2.16415 5.02456,-6.15337 6.00361,-11.12998 0.43312,-2.20161 0.42591,-8.34642 -0.0126,-10.74829 -0.85713,-4.69467 -3.0802,-8.88815 -5.80683,-10.95369 -2.12204,-1.60755 -4.32201,-2.29465 -7.34703,-2.29465 -2.23243,0 -3.77808,0.3201 -5.45473,1.12968 -3.94999,1.90727 -6.78939,6.56901 -7.79695,12.80109 -0.33208,2.05403 -0.28016,8.1089 0.0877,10.22805 0.4156,2.39412 1.37321,5.14268 2.39644,6.87832 1.0381,1.76087 2.94443,3.82566 4.27022,4.62517 2.53702,1.52992 5.88482,2.08331 8.99877,1.48749 z"
             id="path4175"
             inkscape:connector-curvature="0" />
          <path
             style="fill:#ffffff;fill-opacity:1;stroke:#ffffff;stroke-width:1px;stroke-linecap:butt;stroke-linejoin:miter;stroke-opacity:1"
             d="m 342.41744,469.0303 c -5.97252,-0.62652 -11.03804,-2.91193 -14.39374,-6.49404 -2.95374,-3.15303 -4.62653,-6.77344 -5.51186,-11.92928 -0.23997,-1.39752 -0.28872,-3.86013 -0.35394,-17.87761 -0.0792,-17.03315 -0.0346,-18.41194 0.64756,-19.99764 0.49555,-1.15195 1.72452,-2.24511 2.96141,-2.63416 1.36301,-0.42872 3.48866,-0.39919 4.72462,0.0656 1.06748,0.40146 2.31569,1.40758 2.88095,2.32219 0.84749,1.37126 0.84314,1.27683 0.8453,18.33556 0.002,18.66785 0.0367,19.17865 1.4896,22.14344 1.62642,3.31894 5.12847,5.15169 9.83754,5.14833 6.04414,-0.004 9.52956,-2.72715 10.80901,-8.4441 0.22885,-1.02253 0.28253,-3.68423 0.37331,-18.51093 0.12103,-19.76717 -0.003,-18.26138 1.64123,-19.90573 1.08516,-1.08516 2.15926,-1.45242 4.22407,-1.4443 2.97688,0.0117 5.18217,1.48227 5.93381,3.95686 0.33441,1.10098 0.34055,1.50879 0.27983,18.60019 -0.0609,17.15626 -0.0688,17.50542 -0.43102,19.17091 -1.03996,4.78159 -2.79041,8.15925 -5.75205,11.09919 -3.33247,3.30805 -7.42141,5.35591 -12.27578,6.14808 -1.94417,0.31726 -6.04441,0.44518 -7.92985,0.2474 z"
             id="path4177"
             inkscape:connector-curvature="0" />
          <path
             sodipodi:nodetypes="ccscssscssssscscccsscssscccsssssssssss"
             style="fill:#ffffff;fill-opacity:1;stroke:#ffffff;stroke-width:1px;stroke-linecap:butt;stroke-linejoin:miter;stroke-opacity:1"
             d="m 304.79889,490.42792 c -1.52286,-0.48698 -2.86261,-1.62932 -3.45701,-2.94762 -0.24083,-0.5341 -0.29619,-1.80294 -0.40294,-9.23487 -0.0681,-4.73863 -0.13153,-9.78649 -0.14103,-11.21746 -0.0114,-1.72322 -0.0789,-2.60177 -0.19978,-2.60177 -0.10039,0 -0.51008,0.22537 -0.91042,0.50081 -0.95524,0.65723 -4.53599,2.45707 -5.91974,2.97553 -2.19452,0.82224 -3.61809,1.04517 -6.63594,1.0392 -3.20016,-0.006 -4.60933,-0.21161 -7.15927,-1.04289 -8.93259,-2.912 -15.90641,-12.77648 -17.23015,-24.37209 -0.40308,-3.53082 -0.11479,-8.75769 0.68875,-12.48762 0.82882,-3.84731 2.43513,-7.69277 4.5424,-10.87439 2.62363,-3.96124 7.04433,-7.45009 11.44106,-9.02937 2.50576,-0.90005 4.43197,-1.18863 7.97312,-1.1945 3.40301,-0.006 5.248,0.21934 7.65096,0.933 l 1.16786,0.34684 2.24694,0.2308 c 2.89564,0.78235 1.01542,0.0764 4.21856,0.0278 1.867,-1.59809 4.62067,-2.06918 6.57485,-1.12482 0.9999,0.4832 2.53756,2.16623 3.13722,3.43381 l 0.5092,1.07636 -0.0204,25.93237 c -0.0112,14.26281 -0.0687,30.46201 -0.12784,35.99824 -0.10415,9.75591 -0.11852,10.08976 -0.46669,10.84225 -0.90166,1.94878 -2.52223,2.90382 -5.09337,3.00164 -1.07819,0.041 -1.79628,-0.0225 -2.38637,-0.21124 z m -13.50565,-32.65064 c 3.77029,-0.96428 6.68549,-3.75128 8.55127,-8.1752 1.43524,-3.40308 1.88483,-6.37006 1.73497,-11.44947 -0.12957,-4.39184 -0.61024,-6.66095 -2.09082,-9.87021 -2.0941,-4.53909 -5.32787,-7.02321 -9.80791,-7.53421 -7.19214,-0.82036 -12.20919,3.18081 -14.40967,11.49191 -0.53569,2.02328 -0.76124,4.07855 -0.76116,6.93616 1.2e-4,4.63622 0.51208,7.69036 1.78222,10.63202 0.89561,2.07423 1.58945,3.11452 3.22655,4.83756 1.69778,1.78691 2.93445,2.52487 5.22483,3.11783 1.78573,0.4623 4.7711,0.46851 6.54972,0.0136 z"
             id="path4179"
             inkscape:connector-curvature="0" />
          <path
             style="fill:#ffffff;fill-opacity:1;stroke:#ffffff;stroke-width:1px;stroke-linecap:butt;stroke-linejoin:miter;stroke-opacity:1"
             d="m 382.22996,468.96326 c -0.47791,-0.11602 -1.14036,-0.37871 -1.47213,-0.58375 -0.86063,-0.5319 -1.97843,-1.79847 -2.40851,-2.72908 l -0.36867,-0.79771 -0.0454,-24.97901 c -0.0402,-22.12618 -0.0152,-25.09715 0.21958,-26.01347 0.70714,-2.76021 2.48717,-4.0446 5.62247,-4.05689 3.05793,-0.012 5.37832,1.66979 5.89516,4.27272 0.10475,0.52756 0.25377,1.18951 0.33115,1.47102 l 0.1407,0.51182 0.0174,-0.5287 c 0.0143,-0.43513 0.31185,-0.81381 1.68084,-2.1394 2.68622,-2.60107 4.70492,-3.592 7.31909,-3.59279 3.30834,-9.9e-4 7.08288,2.02291 8.07536,4.32997 0.32104,0.74629 0.37152,1.11392 0.31086,2.26398 -0.12356,2.34252 -1.18906,4.1079 -3.04468,5.04462 -0.9486,0.47885 -1.64817,0.63576 -4.54953,1.02046 -4.64481,0.61587 -7.67089,2.9368 -8.99946,6.90239 -0.84728,2.529 -0.82429,2.05998 -0.93704,19.11494 -0.11713,17.71674 -0.0579,16.81416 -1.21761,18.56496 -1.14995,1.7361 -3.957,2.55816 -6.56956,1.92392 z"
             id="path4181"
             inkscape:connector-curvature="0" />
        </g>
      </g>
    </g>
  </g>
</svg>
