<?xml version="1.0" standalone="no"?>
<!DOCTYPE svg PUBLIC "-//W3C//DTD SVG 20010904//EN"
 "http://www.w3.org/TR/2001/REC-SVG-20010904/DTD/svg10.dtd">
<svg version="1.0" xmlns="http://www.w3.org/2000/svg"
 width="704.000000pt" height="704.000000pt" viewBox="0 0 704.000000 704.000000"
 preserveAspectRatio="xMidYMid meet">
<metadata>
Created by potrace 1.11, written by Peter Selinger 2001-2013
</metadata>
<g transform="translate(0.000000,704.000000) scale(0.100000,-0.100000)"
fill="#000000" stroke="none">
<path d="M1748 7034 c-2 -1 -80 -5 -173 -8 -184 -6 -313 -14 -360 -20 -16 -3
-57 -8 -90 -12 -100 -11 -244 -58 -358 -117 -248 -128 -371 -253 -500 -505
-52 -103 -100 -236 -111 -311 -3 -14 -8 -46 -12 -71 -12 -74 -21 -217 -31
-480 -4 -107 -8 -1009 -8 -2005 1 -2024 6 -2273 50 -2510 18 -98 30 -145 45
-180 129 -302 250 -460 450 -587 67 -42 229 -121 290 -142 42 -14 187 -43 220
-44 8 -1 29 -3 45 -6 148 -25 585 -31 2345 -31 1825 0 2196 7 2370 40 13 3 40
7 60 10 19 3 60 12 90 21 30 9 65 18 78 21 12 3 22 10 22 16 0 6 3 8 6 4 4 -3
48 15 98 41 265 137 394 270 524 542 145 306 147 332 147 2825 0 2039 -4 2236
-51 2540 -15 93 -101 302 -177 430 -44 73 -152 197 -212 242 -100 76 -125 93
-125 87 0 -4 -8 0 -18 9 -9 9 -65 38 -122 65 -104 49 -237 89 -328 98 -26 3
-60 7 -77 9 -40 5 -197 16 -320 22 -106 5 -3762 12 -3767 7z"/>
</g>
</svg>
